# AST/ASF file generated using VICON BodyLanguage
# -----------------------------------------------
:version 1.10
:name VICON
:units
  mass 1.0
  length 0.45
  angle deg
:documentation
   .ast/.asf automatically generated from VICON data using
   VICON BodyBuilder and BodyLanguage model FoxedUp or BRILLIANT.MOD
:root
   order TX TY TZ RX RY RZ
   axis XYZ
   position 0 0 0  
   orientation 0 0 0 
:bonedata
  begin
     id 1 
     name lhipjoint
     direction 0.623415 -0.642378 0.445763 
     length 2.49859 
     axis 0 0 0  XYZ
  end
  begin
     id 2 
     name lfemur
     direction 0.34202 -0.939693 0  
     length 6.69689  
     axis 0 0 20  XYZ
    dof rx ry rz
    limits (-160.0 20.0)
           (-70.0 70.0)
           (-60.0 70.0)
  end
  begin
     id 3 
     name ltibia
     direction 0.34202 -0.939693 0   
     length 7.37574   
     axis 0 0 20   XYZ
    dof rx
    limits (-10.0 170.0)
  end
  begin
     id 4 
     name lfoot
     direction 0.084323 -0.231675 0.969132   
     length 2.09111   
     axis -90 7.62852e-016 20   XYZ
    dof rx rz
    limits (-45.0 90.0)
           (-70.0 20.0)
  end
  begin
     id 5 
     name ltoes
     direction 1.5357e-011 -4.21957e-011 1   
     length 1.04989   
     axis -90 7.62852e-016 20   XYZ
    dof rx
    limits (-90.0 20.0)
  end
  begin
     id 6 
     name rhipjoint
     direction -0.605402 -0.653903 0.45376   
     length 2.45455  
     axis 0 0 0  XYZ 
  end
  begin
     id 7 
     name rfemur
     direction -0.34202 -0.939693 0   
     length 6.64523   
     axis 0 0 -20   XYZ
    dof rx ry rz
    limits (-160.0 20.0)
           (-70.0 70.0)
           (-70.0 60.0)
  end
  begin
     id 8 
     name rtibia
     direction -0.34202 -0.939693 0   
     length 7.3339   
     axis 0 0 -20   XYZ
    dof rx
    limits (-10.0 170.0)
 end
 begin
     id 9 
     name rfoot
     direction -0.120854 -0.332043 0.93549   
     length 2.23135  
     axis -90 -7.62852e-016 -20   XYZ
    dof rx rz
    limits (-45.0 90.0)
           (-20.0 70.0)
  end
  begin
     id 10 
     name rtoes
     direction -1.53563e-011 -4.21914e-011 1   
     length 1.10614   
     axis -90 -7.62852e-016 -20   XYZ
    dof rx
    limits (-90.0 20.0)
  end
  begin
     id 11 
     name lowerback
     direction 0.0319682 0.998615 -0.0417941   
     length 2.02718   
     axis 0 0 0   XYZ
    dof rx ry rz
    limits (-20.0 45.0)
           (-30.0 30.0)
           (-30.0 30.0)
  end
  begin
     id 12 
     name upperback
     direction 7.63181e-005 0.995808 0.0914691   
     length 1.97539   
     axis 0 0 0   XYZ
    dof rx ry rz
    limits (-20.0 45.0)
           (-30.0 30.0)
           (-30.0 30.0)
  end
  begin
     id 13 
     name thorax
     direction -0.016423 0.993627 0.111514   
     length 2.00349   
     axis 0 0 0   XYZ
    dof rx ry rz
    limits (-20.0 45.0)
           (-30.0 30.0)
           (-30.0 30.0)
  end
  begin
     id 14 
     name lowerneck
     direction -0.174763 0.981668 -0.0760716   
     length 1.71436   
     axis 0 0 0   XYZ
    dof rx ry rz
    limits (-20.0 45.0)
           (-30.0 30.0)
           (-30.0 30.0)
  end
  begin
     id 15 
     name upperneck
     direction 0.345458 0.934587 -0.0848868   
     length 1.72805   
     axis 0 0 0   XYZ
    dof rx ry rz
    limits (-20.0 45.0)
           (-30.0 30.0)
           (-30.0 30.0)
  end
  begin
     id 16
     name head
     direction 0.13001 0.989848 -0.0574291  
     length 1.767  
     axis 0 0 0   XYZ
    dof rx ry rz
    limits (-20.0 45.0)
           (-30.0 30.0)
           (-30.0 30.0)
  end
  begin
     id 17 
     name lclavicle
     direction 0.952951 0.290122 0.0878234  
     length 3.54654  
     axis 0 0 0   XYZ
    dof ry rz
    limits (-20.0 10.0)
           (0.0 20.0)
  end
  begin
     id 18 
     name lhumerus
     direction 1 -4.48957e-011 -4.56525e-028   
     length 5.19807   
     axis 180 -30 -90   XYZ
    dof rx ry rz
    limits (-60.0 90.0)
           (-90.0 90.0)
           (-90.0 90.0)
  end
  begin
     id 19
     name lradius
     direction 1 -4.48979e-011 -2.0317e-027   
     length 3.0937   
     axis 180 -30 -90   XYZ
    dof rx
    limits (-10.0 170.0)
  end
  begin
     id 20
     name lwrist
     direction 1 -4.48953e-011 -3.05809e-027   
     length 1.54685   
     axis 8.48514e-016 90 90   XYZ
    dof ry
    limits (-180.0 0.0)
 end
  begin
     id 21 
     name lhand
     direction 1 -4.48952e-011 -6.11639e-027   
     length 0.672632   
     axis 3.9013e-015 90 90   XYZ
    dof rx rz
    limits (-90.0 90.0)
           (-45.0 45.0)
  end
  begin
     id 22 
     name lfingers
     direction 1 -4.48925e-011 -1.22426e-026   
     length 0.542293   
     axis 7.80276e-015 90 90   XYZ
    dof rx
    limits (0.0 90.0)
  end
  begin
     id 23
     name lthumb
     direction 0.707107 -6.3486e-011 0.707107   
     length 0.778628   
     axis -90 45 5.37419e-014   XYZ
    dof rx rz
    limits (-45.0 45.0)
           (-45.0 45.0)
  end
  begin
     id 24 
     name rclavicle
     direction -0.960732 0.273675 -0.0457849   
     length 3.52079  
     axis 0 0 0   XYZ 
    dof ry rz
    limits (-10.0 20.0)
           (-20.0 0.0)
  end
  begin
     id 25 
     name rhumerus
     direction -1 -4.48976e-011 -1.63613e-027  
     length 5.45222   
     axis 180 30 90   XYZ
    dof rx ry rz
    limits (-90.0 60.0)
           (-90.0 90.0)
           (-90.0 90.0)
  end
  begin
     id 26 
     name rradius
     direction -1 -4.48957e-011 -7.00033e-028   
     length 3.01284   
     axis 180 30 90   XYZ
    dof rx
    limits (-10.0 170.0)
  end
  begin
     id 27 
     name rwrist
     direction -1 -4.48983e-011 -3.05543e-027   
     length 1.50642   
     axis 8.48514e-016 -90 -90   XYZ
    dof ry
    limits (-180.0 0.0)
  end
  begin
     id 28
     name rhand
     direction -1 -4.48984e-011 -6.11072e-027   
     length 0.622296   
     axis 3.9013e-015 -90 -90   XYZ
    dof rx rz
    limits (-90.0 90.0)
           (-45.0 45.0)
  end
  begin
     id 29
     name rfingers
     direction -1 -4.48865e-011 -1.22637e-026   
     length 0.501711   
     axis 7.80276e-015 -90 -90   XYZ
    dof rx
    limits (0.0 90.0)
  end
  begin
     id 30
     name rthumb
     direction -0.707107 -6.34932e-011 0.707107   
     length 0.72036   
     axis -90 -45 -5.37419e-014   XYZ
    dof rx rz
    limits (-45.0 45.0)
           (-45.0 45.0)
  end
:hierarchy
  begin
    root lhipjoint rhipjoint lowerback
    lhipjoint lfemur
    lfemur ltibia
    ltibia lfoot
    lfoot ltoes
    rhipjoint rfemur
    rfemur rtibia
    rtibia rfoot
    rfoot rtoes
    lowerback upperback
    upperback thorax
    thorax lowerneck lclavicle rclavicle
    lowerneck upperneck
    upperneck head
    lclavicle lhumerus
    lhumerus lradius
    lradius lwrist
    lwrist lhand lthumb
    lhand lfingers
    rclavicle rhumerus
    rhumerus rradius
    rradius rwrist
    rwrist rhand rthumb
    rhand rfingers
  end

#!OML:ASF H:\Not Pregnant\Project 1\Capture day 1\Session 1\non-pregnant.ASF
:FULLY-SPECIFIED
:DEGREES
201
root 2.65842 15.6265 -11.6169 14.0146 4.95764 -8.42959
lowerback 6.74971 6.02739 11.1213
upperback -6.44344 9.48779 0.60771
thorax -9.08069 3.89856 -6.72935
lowerneck 23.4348 -11.9185 -32.3752
upperneck -18.2593 -21.1094 42.4029
head 0.439421 -13.2896 21.8044
rclavicle 2.68608e-014 1.55052e-014
rhumerus -31.7414 12.075 -94.0438
rradius 94.6796
rwrist 1.72225
rhand -19.5029 -11.2377
rfingers 7.12502
rthumb 6.81967 -41.1079
lclavicle 2.68608e-014 1.55052e-014
lhumerus -65.7083 -8.50873 97.0769
lradius 96.2681
lwrist 37.4248
lhand -13.1751 -8.23009
lfingers 7.12502
lthumb 12.9244 21.3497
rfemur -13.6387 1.86522 32.3904
rtibia 41.9928
rfoot -24.6602 2.66404
rtoes -31.0789
lfemur -55.213 4.31244 -13.8422
ltibia 71.4383
lfoot -15.4097 2.68741
ltoes -29.9329
202
root 2.69092 15.7038 -11.3553 14.3955 5.13722 -8.16227
lowerback 6.27749 6.17547 10.9521
upperback -6.53669 9.59669 0.430982
thorax -8.87753 3.97336 -6.77493
lowerneck 23.5098 -11.9699 -32.3705
upperneck -18.5849 -21.1355 42.5765
head 0.390475 -13.3291 21.9198
rclavicle 1.10152e-013 1.63003e-014
rhumerus -31.5813 11.7279 -93.8483
rradius 93.8713
rwrist 1.99182
rhand -19.9385 -11.2629
rfingers 7.12502
rthumb 6.3992 -41.1462
lclavicle 1.10152e-013 1.63003e-014
lhumerus -66.1035 -8.40928 96.7038
lradius 96.5738
lwrist 37.8622
lhand -13.0849 -8.38723
lfingers 7.12502
lthumb 13.0114 21.187
rfemur -12.4427 1.96857 32.0622
rtibia 40.5244
rfoot -23.1028 3.26548
rtoes -31.5964
lfemur -55.3519 3.45552 -13.9935
ltibia 67.8099
lfoot -15.6659 2.78505
ltoes -30.2266
203
root 2.72396 15.7794 -11.0896 14.7712 5.35854 -7.9068
lowerback 5.7374 6.2778 10.7885
upperback -6.60208 9.63702 0.275998
thorax -8.61943 4.02023 -6.78166
lowerneck 23.526 -12.0063 -32.384
upperneck -18.8769 -21.1371 42.749
head 0.35302 -13.3507 22.0367
rclavicle 5.73991e-015 1.82882e-014
rhumerus -31.464 11.4592 -93.6955
rradius 93.0325
rwrist 2.29798
rhand -20.3492 -11.2617
rfingers 7.12502
rthumb 6.00268 -41.1567
lclavicle 5.73991e-015 1.82882e-014
lhumerus -66.4524 -8.24734 96.3112
lradius 96.8258
lwrist 38.3057
lhand -12.9905 -8.53865
lfingers 7.12502
lthumb 13.1023 21.0298
rfemur -11.2917 1.9929 31.7565
rtibia 39.111
rfoot -21.4162 3.96797
rtoes -32.0234
lfemur -55.3408 2.52268 -14.0453
ltibia 64.1046
lfoot -15.8714 2.73662
ltoes -30.4465
204
root 2.75717 15.8526 -10.8202 15.1303 5.63016 -7.66884
lowerback 5.13962 6.33053 10.6355
upperback -6.64016 9.60628 0.147252
thorax -8.31402 4.03662 -6.75025
lowerneck 23.4898 -12.024 -32.4168
upperneck -19.1221 -21.114 42.9175
head 0.328614 -13.3545 22.1542
rclavicle 1.00138e-014 -2.10712e-014
rhumerus -31.3864 11.2831 -93.5887
rradius 92.1625
rwrist 2.54877
rhand -20.7545 -11.2218
rfingers 7.12502
rthumb 5.61135 -41.1275
lclavicle 1.00138e-014 -2.10712e-014
lhumerus -66.7619 -8.02501 95.9035
lradius 97.0229
lwrist 38.7713
lhand -12.8987 -8.69086
lfingers 7.12502
lthumb 13.1909 20.8718
rfemur -10.1836 1.93807 31.4831
rtibia 37.7659
rfoot -19.5974 4.75316
rtoes -32.3588
lfemur -55.2027 1.50306 -13.9865
ltibia 60.3982
lfoot -15.9873 2.57399
ltoes -30.591
205
root 2.79108 15.9226 -10.5462 15.4529 5.92037 -7.45509
lowerback 4.48838 6.34141 10.4955
upperback -6.63746 9.51484 0.0487978
thorax -7.94756 4.02839 -6.67958
lowerneck 23.3908 -12.0276 -32.4678
upperneck -19.3221 -21.0689 43.0811
head 0.319543 -13.341 22.2685
rclavicle -9.96408e-014 -5.32743e-014
rhumerus -31.326 11.2273 -93.526
rradius 91.2565
rwrist 2.67092
rhand -21.1758 -11.1273
rfingers 7.12502
rthumb 5.20463 -41.0434
lclavicle -9.96408e-014 -5.32743e-014
lhumerus -67.0238 -7.74316 95.4858
lradius 97.166
lwrist 39.2634
lhand -12.8317 -8.84571
lfingers 7.12502
lthumb 13.2554 20.7128
rfemur -9.10033 1.83269 31.2371
rtibia 36.5064
rfoot -17.6487 5.62859
rtoes -32.6136
lfemur -54.9352 0.42338 -13.8217
ltibia 56.7743
lfoot -15.9976 2.33604
ltoes -30.6587
206
root 2.82483 15.9876 -10.2695 15.745 6.24098 -7.27139
lowerback 3.79938 6.30372 10.3652
upperback -6.6004 9.35653 -0.0136205
thorax -7.53931 3.99057 -6.56663
lowerneck 23.2277 -12.0215 -32.535
upperneck -19.4844 -21.0056 43.2329
head 0.323843 -13.311 22.3738
rclavicle 9.28324e-014 2.82274e-014
rhumerus -31.2709 11.3099 -93.5038
rradius 90.3165
rwrist 2.6267
rhand -21.6143 -10.9613
rfingers 7.12502
rthumb 4.78117 -40.8874
lclavicle 9.28324e-014 2.82274e-014
lhumerus -67.2332 -7.39839 95.0627
lradius 97.2485
lwrist 39.7643
lhand -12.7883 -9.01598
lfingers 7.12502
lthumb 13.2972 20.5398
rfemur -8.07374 1.69811 31.0334
rtibia 35.3671
rfoot -15.5624 6.55972
rtoes -32.8136
lfemur -54.5945 -0.703008 -13.5535
ltibia 53.3195
lfoot -15.8771 2.03419
ltoes -30.667
207
root 2.85797 16.0466 -9.99059 16.0012 6.5854 -7.10779
lowerback 3.08429 6.22078 10.2289
upperback -6.52678 9.1356 -0.0445269
thorax -7.09415 3.92514 -6.41188
lowerneck 22.9961 -12.0139 -32.61
upperneck -19.6135 -20.9304 43.3779
head 0.343803 -13.2683 22.4678
rclavicle 1.76918e-014 -1.78906e-014
rhumerus -31.205 11.5259 -93.511
rradius 89.3494
rwrist 2.41826
rhand -22.0481 -10.7097
rfingers 7.12502
rthumb 4.36236 -40.6447
lclavicle 1.76918e-014 -1.78906e-014
lhumerus -67.3782 -7.0075 94.6393
lradius 97.2591
lwrist 40.2413
lhand -12.7723 -9.20094
lfingers 7.12502
lthumb 13.3127 20.3538
rfemur -7.12167 1.55513 30.8626
rtibia 34.3944
rfoot -13.3323 7.52462
rtoes -32.9593
lfemur -54.1992 -1.84171 -13.2202
ltibia 50.1146
lfoot -15.6358 1.69706
ltoes -30.6486
208
root 2.89079 16.0981 -9.71098 16.2207 6.92182 -6.96703
lowerback 2.36784 6.10399 10.0893
upperback -6.42294 8.87084 -0.0512624
thorax -6.62832 3.83906 -6.23096
lowerneck 22.6956 -12.0049 -32.682
upperneck -19.7026 -20.8403 43.5193
head 0.379047 -13.2124 22.5514
rclavicle 8.55271e-014 3.89618e-014
rhumerus -31.1342 11.8581 -93.5434
rradius 88.3756
rwrist 2.08059
rhand -22.4448 -10.3633
rfingers 7.12502
rthumb 3.97928 -40.3059
lclavicle 8.55271e-014 3.89618e-014
lhumerus -67.4574 -6.58772 94.2185
lradius 97.1898
lwrist 40.6617
lhand -12.7519 -9.40502
lfingers 7.12502
lthumb 13.3323 20.1485
rfemur -6.28156 1.43218 30.7169
rtibia 33.6532
rfoot -10.9524 8.5054
rtoes -33.0719
lfemur -53.7673 -2.93837 -12.8578
ltibia 47.2334
lfoot -15.3005 1.36416
ltoes -30.6011
209
root 2.92301 16.141 -9.43197 16.4078 7.24171 -6.84164
lowerback 1.66818 5.95774 9.93791
upperback -6.29811 8.57023 -0.0425487
thorax -6.16021 3.73469 -6.03324
lowerneck 22.4868 -11.9255 -32.8324
upperneck -19.7041 -20.8288 43.3096
head 0.424764 -13.1631 23.1203
rclavicle 1.54058e-014 -1.78906e-014
rhumerus -31.0675 12.2818 -93.5976
rradius 87.4221
rwrist 1.67011
rhand -22.7486 -9.96137
rfingers 7.12502
rthumb 3.68586 -39.9092
lclavicle 1.54058e-014 -1.78906e-014
lhumerus -67.4678 -6.16006 93.8037
lradius 97.0319
lwrist 41.0035
lhand -12.7036 -9.62526
lfingers 7.12502
lthumb 13.3789 19.9252
rfemur -5.59801 1.3351 30.5868
rtibia 33.2108
rfoot -8.39863 9.47158
rtoes -33.0732
lfemur -53.3165 -3.95 -12.5119
ltibia 44.7323
lfoot -14.902 1.04683
ltoes -30.5426
210
root 2.95469 16.174 -9.15445 16.5561 7.52397 -6.72713
lowerback 1.00892 5.79138 9.76989
upperback -6.15768 8.24907 -0.0268422
thorax -5.70532 3.61833 -5.82914
lowerneck 22.0928 -11.9188 -32.8606
upperneck -19.7132 -20.7164 43.4426
head 0.48399 -13.0905 23.1871
rclavicle 9.33046e-014 2.22639e-014
rhumerus -31.0167 12.7607 -93.6694
rradius 86.5115
rwrist 1.26444
rhand -22.922 -9.5175
rfingers 7.12502
rthumb 3.51838 -39.4682
lclavicle 9.33046e-014 2.22639e-014
lhumerus -67.4113 -5.75292 93.4032
lradius 96.7881
lwrist 41.2724
lhand -12.6229 -9.85058
lfingers 7.12502
lthumb 13.4566 19.6947
rfemur -5.1019 1.27134 30.4612
rtibia 33.1322
rfoot -5.63656 10.3907
rtoes -32.9301
lfemur -52.8433 -4.83347 -12.2251
ltibia 42.6537
lfoot -14.4724 0.768377
ltoes -30.5558
211
root 2.98616 16.1962 -8.87917 16.667 7.74616 -6.62251
lowerback 0.401318 5.61175 9.58639
upperback -6.00669 7.9182 -0.00901012
thorax -5.27223 3.49455 -5.62597
lowerneck 21.6588 -11.9136 -32.8617
upperneck -19.6673 -20.5957 43.5755
head 0.557583 -13.0119 23.2417
rclavicle 2.64632e-014 5.22804e-014
rhumerus -30.9943 13.2728 -93.7603
rradius 85.6668
rwrist 0.92133
rhand -22.929 -9.05204
rfingers 7.12502
rthumb 3.51169 -39.0029
lclavicle 2.64632e-014 5.22804e-014
lhumerus -67.2832 -5.37686 93.0181
lradius 96.4611
lwrist 41.486
lhand -12.4878 -10.0699
lfingers 7.12502
lthumb 13.5869 19.4668
rfemur -4.82015 1.24759 30.3273
rtibia 33.4601
rfoot -2.63065 11.2219
rtoes -32.5171
lfemur -52.3448 -5.55514 -12.0242
ltibia 41.0287
lfoot -14.0152 0.513583
ltoes -30.7245
212
root 3.01696 16.2073 -8.60716 16.7459 7.89751 -6.52953
lowerback -0.136886 5.42484 9.3837
upperback -5.85884 7.58847 0.00816319
thorax -4.88346 3.36738 -5.42689
lowerneck 21.2053 -11.9093 -32.8338
upperneck -19.5685 -20.4719 43.7042
head 0.642044 -12.9309 23.2829
rclavicle -3.44394e-014 -3.45885e-014
rhumerus -31.0224 13.7894 -93.8737
rradius 84.9049
rwrist 0.680694
rhand -22.7641 -8.5655
rfingers 7.12502
rthumb 3.67092 -38.5136
lclavicle -3.44394e-014 -3.45885e-014
lhumerus -67.0935 -5.05321 92.6571
lradius 96.0631
lwrist 41.6559
lhand -12.306 -10.2721
lfingers 7.12502
lthumb 13.7621 19.2528
rfemur -4.77614 1.28203 30.186
rtibia 34.2088
rfoot 0.611639 11.8929
rtoes -31.7817
lfemur -51.8295 -6.08171 -11.9261
ltibia 39.8838
lfoot -13.4698 0.216034
ltoes -31.161
213
root 3.04705 16.2077 -8.33858 16.7996 7.96009 -6.45972
lowerback -0.60818 5.23858 9.1701
upperback -5.72193 7.2708 0.0254675
thorax -4.54282 3.24183 -5.23448
lowerneck 20.7439 -11.9019 -32.7816
upperneck -19.4132 -20.3454 43.826
head 0.736244 -12.848 23.3126
rclavicle -3.20043e-014 -1.59028e-014
rhumerus -31.1135 14.2921 -94.0142
rradius 84.2372
rwrist 0.542088
rhand -22.4154 -8.06374
rfingers 7.12502
rthumb 4.00761 -38.0058
lclavicle -3.20043e-014 -1.59028e-014
lhumerus -66.8465 -4.79385 92.3255
lradius 95.6046
lwrist 41.7843
lhand -12.1023 -10.4454
lfingers 7.12502
lthumb 13.9584 19.0661
rfemur -4.97146 1.39461 30.0408
rtibia 35.36
rfoot 4.02983 12.3753
rtoes -30.6478
lfemur -51.3002 -6.35515 -11.9505
ltibia 39.2397
lfoot -12.7233 -0.161675
ltoes -31.7411
